<?xml version="1.0" standalone="no"?>
<!DOCTYPE svg PUBLIC "-//W3C//DTD SVG 20010904//EN"
 "http://www.w3.org/TR/2001/REC-SVG-20010904/DTD/svg10.dtd">
<svg version="1.0" xmlns="http://www.w3.org/2000/svg"
 width="500.000000pt" height="500.000000pt" viewBox="0 0 500.000000 500.000000"
 preserveAspectRatio="xMidYMid meet">

<g transform="translate(0.000000,500.000000) scale(0.100000,-0.100000)"
fill="#000000" stroke="none">
<path d="M2316 4238 c-414 -33 -862 -268 -1142 -599 -306 -361 -455 -817 -415
-1277 20 -243 68 -417 171 -629 254 -519 736 -872 1315 -964 103 -16 407 -16
510 0 579 92 1061 445 1315 964 103 212 151 386 171 630 27 312 -31 617 -170
902 -272 554 -812 927 -1410 974 -150 12 -188 12 -345 -1z m37 -327 c-2 -10 0
-35 5 -54 14 -50 -5 -54 -45 -8 l-32 36 -1 -42 c0 -24 -4 -43 -9 -43 -5 0 -11
19 -13 43 -3 23 -8 50 -12 60 -15 32 27 19 57 -19 16 -19 31 -34 32 -32 2 2 0
20 -4 41 -8 32 -7 37 9 37 13 0 17 -6 13 -19z m423 -6 c432 -87 807 -373 1004
-765 48 -96 82 -188 72 -193 -15 -9 -113 -39 -116 -36 -1 2 -14 36 -29 74 -75
196 -250 425 -427 558 -110 83 -281 168 -420 208 -77 23 -241 49 -305 49 l-45
0 0 67 0 66 94 -6 c51 -4 129 -13 172 -22z m-673 -40 c21 -21 31 -73 18 -89
-31 -37 -75 -22 -90 31 -10 33 0 56 29 66 24 9 28 8 43 -8z m-208 -75 c-7 -11
22 -71 39 -82 8 -6 6 -11 -4 -18 -21 -14 -33 -12 -27 4 3 7 -5 31 -18 54 -13
22 -20 43 -17 46 9 10 34 7 27 -4z m-145 -91 c0 -5 -4 -8 -9 -5 -4 3 -16 0
-26 -8 -16 -12 -16 -14 -1 -44 18 -35 40 -40 68 -15 10 9 18 11 18 5 0 -16
-46 -44 -66 -40 -9 2 -26 20 -37 40 -21 36 -21 37 -3 57 20 22 56 29 56 10z
m-180 -131 c0 -17 41 -58 59 -58 14 0 14 -2 0 -15 -11 -12 -22 -13 -49 -5 -59
17 -66 13 -35 -20 22 -23 26 -33 17 -42 -9 -9 -12 -9 -12 2 0 19 -50 70 -69
70 -14 0 -14 2 0 15 11 12 22 13 49 5 55 -16 66 -13 45 10 -10 11 -24 20 -32
20 -16 0 -17 17 0 23 20 9 27 8 27 -5z m-180 -177 c0 -5 -7 -14 -15 -21 -12
-10 -13 -16 -4 -27 10 -11 15 -11 30 3 20 18 27 6 9 -12 -8 -8 -6 -15 6 -25
10 -8 19 -10 21 -4 8 22 22 39 29 33 3 -4 -4 -21 -16 -38 l-22 -31 -22 20
c-11 11 -33 26 -48 34 l-27 14 22 31 c22 31 37 41 37 23z m1549 -61 l94 -22
-7 -67 c-3 -36 -6 -90 -6 -118 l0 -53 -55 0 -55 0 0 41 c0 62 -13 76 -91 100
-82 25 -194 22 -247 -5 -78 -40 -116 -130 -128 -298 -7 -95 -7 -97 -33 -100
l-26 -3 0 -95 0 -95 35 -3 c34 -3 36 -6 53 -62 21 -73 24 -240 4 -240 -27 0
-106 60 -134 102 -44 65 -62 118 -74 225 -14 120 -6 343 15 438 28 120 94 209
186 248 102 43 305 46 469 7z m-1669 -120 c0 -5 16 -28 35 -49 20 -22 31 -42
26 -45 -5 -4 -31 -2 -56 4 -25 6 -51 7 -57 4 -6 -4 -9 -1 -6 7 5 14 20 15 73
5 l29 -6 -32 33 c-32 33 -41 57 -22 57 6 0 10 -4 10 -10z m-104 -225 c-3 -8
-9 -22 -12 -30 -9 -21 25 -19 42 3 13 16 14 15 11 -8 -1 -16 4 -25 16 -28 13
-3 17 3 17 22 0 14 5 26 11 26 7 0 8 -12 4 -32 -10 -47 -12 -48 -50 -32 -19 8
-44 14 -55 14 -11 0 -20 4 -20 9 0 20 23 71 32 71 6 0 7 -7 4 -15z m2663 -252
l-34 -35 39 4 c22 1 41 -2 43 -8 2 -6 -14 -11 -39 -12 -23 -1 -47 -7 -52 -12
-15 -15 -26 -12 -26 8 0 9 16 30 36 45 42 34 39 42 -10 29 -21 -6 -36 -7 -36
-1 0 5 -1 12 -2 15 -2 3 19 8 46 10 27 2 52 6 55 9 3 4 7 1 9 -5 3 -7 -11 -27
-29 -47z m-2677 30 c14 -13 21 -14 30 -5 14 14 28 16 28 4 0 -5 -11 -15 -25
-22 -30 -16 -34 -45 -5 -37 12 3 20 0 20 -7 0 -19 -12 -27 -25 -16 -7 6 -31
11 -54 12 -35 1 -41 5 -41 22 0 25 26 66 42 66 6 0 20 -8 30 -17z m1108 -390
l255 -398 3 325 c1 179 0 330 -3 337 -2 8 -23 13 -50 13 l-45 0 0 60 0 60 185
0 185 0 0 -60 0 -60 -50 0 -50 0 0 -400 0 -400 50 0 50 0 0 -65 0 -66 -142 3
-142 3 -246 382 c-135 210 -251 388 -258 395 -9 9 -12 -70 -12 -385 l0 -397
-120 0 -120 0 0 65 0 65 35 0 35 0 0 400 0 400 -50 0 -50 0 0 60 0 60 143 0
142 0 255 -397z m810 200 c0 -104 5 -205 11 -226 6 -22 9 -41 6 -43 -2 -2 -25
-10 -51 -18 -46 -14 -48 -14 -67 8 l-20 23 -62 -17 c-34 -9 -86 -19 -114 -22
l-53 -5 0 68 0 69 43 0 c48 0 138 22 138 33 -1 4 -1 50 -1 102 l0 95 -40 0
-40 0 0 60 0 60 125 0 125 0 0 -187z m-1933 -54 c4 -24 10 -29 24 -26 13 4 19
0 19 -11 0 -14 -10 -17 -55 -17 l-55 0 0 36 c0 42 5 49 37 49 18 0 25 -7 30
-31z m2731 15 c24 -17 29 -53 10 -72 -7 -7 -28 -12 -48 -12 -43 0 -60 15 -60
52 0 43 56 62 98 32z m-30 -214 c36 0 40 -2 35 -21 -4 -13 -8 -16 -13 -10 -3
7 -29 13 -57 14 -42 2 -49 5 -45 19 3 14 8 15 22 8 10 -6 37 -10 58 -10z
m-2623 -27 c21 -139 82 -308 156 -438 68 -118 102 -162 211 -273 157 -158 346
-270 563 -332 61 -18 111 -33 112 -34 2 -1 -2 -30 -8 -63 l-11 -61 -61 14
c-478 110 -867 462 -1031 932 -29 83 -66 237 -66 273 0 7 22 11 107 17 18 2
23 -5 28 -35z m2531 -129 c-9 -8 -16 -19 -16 -23 0 -13 23 -29 45 -31 38 -4
45 0 45 25 0 14 5 25 10 25 11 0 13 -20 4 -44 -11 -30 -41 -38 -79 -22 -29 12
-35 20 -35 44 0 32 7 42 27 42 12 0 11 -3 -1 -16z m-56 -185 c0 -5 -4 -8 -9
-5 -8 6 -21 -15 -21 -35 0 -4 14 -16 31 -24 32 -17 59 -8 59 21 0 8 5 14 10
14 13 0 13 -3 -1 -34 -16 -33 -33 -39 -75 -21 -40 17 -51 37 -36 71 11 24 42
34 42 13z m-50 -211 c22 -11 26 -18 19 -28 -6 -10 -12 -11 -16 -5 -14 20 -70
55 -77 48 -3 -3 -6 0 -6 9 0 25 11 28 32 8 11 -10 33 -25 48 -32z m-105 -113
c30 -30 31 -39 4 -77 l-22 -30 -36 36 c-20 20 -43 36 -51 36 -8 0 -3 11 15 30
35 36 58 38 90 5z m-185 -160 c22 -14 44 -25 50 -25 5 0 10 -4 10 -9 0 -15
-18 -23 -25 -11 -11 17 -45 -8 -42 -32 1 -11 -4 -23 -12 -26 -8 -2 -11 0 -7 6
3 6 -3 31 -14 57 -18 41 -19 65 -4 65 2 0 22 -11 44 -25z m-307 -210 c28 -29
39 -46 30 -49 -7 -3 -15 -1 -18 4 -11 18 -35 10 -45 -15 -16 -41 -25 -28 -28
40 -2 41 1 65 8 65 6 0 30 -20 53 -45z m-249 -70 c8 -51 17 -60 45 -45 12 6
22 6 26 1 4 -8 -65 -36 -70 -28 -1 1 -7 20 -12 42 -6 22 -14 48 -18 58 -5 12
-3 17 8 17 10 0 17 -15 21 -45z m-324 -32 c6 -26 16 -53 22 -60 8 -10 6 -13
-5 -13 -8 0 -17 7 -21 15 -3 8 -15 15 -26 15 -11 0 -23 -7 -26 -15 -4 -8 -13
-15 -20 -15 -13 0 -13 3 0 23 7 12 19 39 26 60 16 50 35 47 50 -10z"/>
<path d="M2047 3847 c-9 -23 21 -79 40 -75 22 4 27 26 14 61 -11 28 -45 37
-54 14z"/>
<path d="M1107 2754 c-16 -16 -7 -44 14 -44 15 0 20 5 17 22 -3 22 -19 33 -31
22z"/>
<path d="M1087 2523 c-14 -13 -6 -33 13 -33 13 0 20 7 20 20 0 19 -20 27 -33
13z"/>
<path d="M3795 2516 c-17 -12 -17 -16 -5 -30 18 -23 74 -18 78 8 7 34 -39 47
-73 22z"/>
<path d="M3463 1649 c-8 -8 -2 -19 24 -42 28 -25 36 -28 44 -16 13 21 11 34
-9 52 -22 20 -43 22 -59 6z"/>
<path d="M3324 1474 c3 -8 6 -18 6 -20 0 -3 5 -2 10 1 15 9 12 22 -6 29 -12 5
-15 2 -10 -10z"/>
<path d="M3000 1281 c0 -12 6 -21 15 -21 8 0 15 4 15 9 0 5 -7 14 -15 21 -13
10 -15 9 -15 -9z"/>
<path d="M2436 1182 c-9 -26 -1 -41 13 -26 5 5 5 18 1 29 -7 19 -7 19 -14 -3z"/>
</g>
</svg>
