<?xml version="1.0" standalone="no"?>
<!DOCTYPE svg PUBLIC "-//W3C//DTD SVG 20010904//EN"
 "http://www.w3.org/TR/2001/REC-SVG-20010904/DTD/svg10.dtd">
<svg version="1.0" xmlns="http://www.w3.org/2000/svg"
 width="500.000000pt" height="500.000000pt" viewBox="0 0 500.000000 500.000000"
 preserveAspectRatio="xMidYMid meet">

<g transform="translate(0.000000,500.000000) scale(0.100000,-0.100000)"
fill="#000000" stroke="none">
<path d="M0 2500 l0 -2500 2500 0 2500 0 0 2500 0 2500 -2500 0 -2500 0 0
-2500z m2775 1704 c364 -58 689 -226 952 -492 407 -410 579 -992 462 -1565
-134 -664 -673 -1203 -1336 -1337 -841 -169 -1664 283 -1969 1083 -74 192
-107 384 -107 607 0 333 82 625 255 907 286 468 809 784 1353 817 97 5 293 -4
390 -20z"/>
<path d="M2335 4011 c-3 -5 -1 -12 5 -16 5 -3 10 -18 10 -33 l-1 -27 -33 38
c-24 26 -38 35 -51 31 -10 -4 -13 -9 -6 -13 6 -4 12 -28 13 -54 2 -31 8 -47
16 -47 10 0 12 11 7 43 l-6 42 33 -38 c18 -20 41 -37 52 -37 14 0 16 3 7 13
-6 8 -12 35 -12 60 -2 44 -18 63 -34 38z"/>
<path d="M2055 3947 c-14 -11 -17 -21 -11 -47 8 -42 23 -60 50 -60 43 0 58 42
34 95 -13 28 -43 33 -73 12z m49 -13 c9 -8 16 -29 16 -45 0 -22 -5 -29 -20
-29 -33 0 -57 72 -27 83 6 3 13 6 14 6 1 1 9 -6 17 -15z"/>
<path d="M2520 3866 l0 -66 40 0 c60 0 226 -27 300 -49 139 -40 310 -125 420
-208 177 -133 352 -362 427 -558 15 -38 28 -72 29 -74 3 -3 101 27 116 36 10
5 -24 97 -72 193 -136 272 -371 506 -645 642 -161 80 -349 132 -525 145 l-90
6 0 -67z"/>
<path d="M1881 3881 c-12 -8 -12 -12 2 -25 9 -9 21 -32 28 -51 7 -19 16 -35
20 -35 18 0 18 21 -1 52 -11 18 -20 41 -20 51 0 19 -8 21 -29 8z"/>
<path d="M1711 3776 c-21 -23 -22 -25 -7 -55 22 -41 46 -53 76 -38 13 7 26 18
28 26 4 11 -1 10 -19 -2 -32 -23 -36 -22 -59 15 -20 33 -13 58 16 58 8 0 14 5
14 10 0 18 -26 11 -49 -14z"/>
<path d="M1555 3660 c-3 -5 9 -24 27 -41 21 -19 26 -29 15 -25 -38 12 -95 18
-98 10 -6 -13 79 -96 86 -85 3 5 -7 23 -21 40 -29 34 -26 36 30 20 58 -16 63
1 15 49 -46 46 -45 46 -54 32z"/>
<path d="M1372 3460 c-20 -26 -32 -63 -16 -47 4 4 25 -8 46 -25 l40 -31 23 29
c13 16 21 33 18 37 -3 5 -13 -3 -23 -17 -14 -22 -19 -24 -29 -13 -6 8 -8 23
-4 33 6 17 5 17 -11 5 -26 -22 -45 2 -22 28 9 10 13 22 8 25 -5 3 -19 -8 -30
-24z"/>
<path d="M2550 3346 c-72 -17 -97 -28 -147 -65 -54 -39 -98 -116 -119 -206
-21 -95 -29 -318 -15 -438 12 -107 30 -160 74 -225 28 -42 107 -102 134 -102
20 0 17 167 -4 240 -17 56 -19 59 -53 62 l-35 3 0 95 0 95 26 3 c26 3 26 5 33
100 12 168 50 258 128 298 53 27 165 30 247 5 78 -24 91 -38 91 -100 l0 -41
55 0 55 0 0 53 c0 28 3 82 6 118 l7 67 -94 22 c-117 28 -309 36 -389 16z"/>
<path d="M1265 3300 c-4 -7 6 -26 26 -47 l34 -35 -46 7 c-27 4 -49 3 -53 -3
-6 -10 112 -27 122 -17 3 3 -8 20 -25 38 -17 17 -35 40 -40 51 -7 13 -12 15
-18 6z"/>
<path d="M1156 3056 c-3 -13 -9 -32 -13 -42 -5 -13 -3 -16 10 -11 19 7 78 -11
89 -27 6 -9 12 3 33 62 2 6 1 12 -4 12 -5 0 -12 -11 -15 -24 -8 -32 -46 -25
-39 7 4 22 4 22 -11 3 -13 -16 -19 -17 -28 -8 -10 10 -10 17 0 32 10 16 10 20
-2 20 -8 0 -17 -11 -20 -24z"/>
<path d="M1113 2848 c-6 -7 -13 -27 -16 -44 -5 -29 -4 -30 26 -30 18 1 44 -3
60 -7 21 -6 27 -4 27 8 0 8 -9 15 -20 15 -28 0 -25 18 5 32 14 6 25 17 25 25
0 11 -5 10 -24 -2 -21 -14 -24 -14 -29 0 -8 18 -41 20 -54 3z m42 -33 c0 -14
-6 -19 -20 -17 -26 5 -27 6 -19 26 9 23 39 16 39 -9z"/>
<path d="M3849 2785 c-3 -3 -28 -7 -55 -9 -27 -2 -48 -7 -46 -10 1 -3 2 -10 2
-15 0 -6 15 -5 36 1 49 13 52 5 10 -29 -20 -15 -36 -36 -36 -45 0 -20 11 -23
26 -8 5 5 29 11 52 12 25 1 41 6 39 12 -2 6 -21 9 -43 8 l-39 -4 34 35 c18 20
32 40 29 47 -2 6 -6 9 -9 5z"/>
<path d="M1720 2710 l0 -60 50 0 50 0 0 -400 0 -400 -35 0 -35 0 0 -65 0 -65
120 0 120 0 0 397 c0 315 3 394 12 385 7 -7 123 -185 258 -395 l246 -382 142
-3 142 -3 0 66 0 65 -50 0 -50 0 0 400 0 400 50 0 50 0 0 60 0 60 -185 0 -185
0 0 -60 0 -60 45 0 c27 0 48 -5 50 -13 3 -7 4 -158 3 -337 l-3 -325 -255 398
-255 397 -142 0 -143 0 0 -60z"/>
<path d="M2820 2700 l0 -60 40 0 40 0 0 -95 c0 -52 0 -98 1 -102 0 -11 -90
-33 -138 -33 l-43 0 0 -69 0 -68 53 5 c28 3 80 13 114 22 l62 17 20 -23 c19
-22 21 -22 67 -8 26 8 49 16 51 18 3 2 0 21 -6 43 -6 21 -11 122 -11 226 l0
187 -125 0 -125 0 0 -60z"/>
<path d="M1092 2628 c-6 -6 -12 -26 -12 -42 l0 -31 60 0 c41 0 60 4 60 13 0 6
-11 12 -24 12 -19 0 -25 6 -28 28 -3 30 -34 42 -56 20z m46 -31 c2 -12 -3 -17
-17 -17 -15 0 -21 6 -21 21 0 25 33 22 38 -4z"/>
<path d="M3793 2540 c-16 -7 -23 -18 -23 -38 0 -37 17 -52 60 -52 20 0 41 5
48 12 19 19 14 55 -10 72 -25 18 -42 19 -75 6z m65 -19 c8 -5 12 -17 10 -27
-4 -26 -60 -31 -78 -8 -12 14 -12 18 5 30 21 16 44 18 63 5z"/>
<path d="M1102 2403 l-33 -4 6 -47 c47 -351 180 -628 415 -862 195 -195 426
-324 687 -384 l61 -14 11 61 c6 33 10 62 8 63 -1 1 -51 16 -112 34 -246 71
-444 196 -625 396 -155 170 -268 415 -306 660 l-17 104 -31 -2 c-17 0 -46 -3
-64 -5z"/>
<path d="M3758 2322 c-4 -14 3 -17 45 -19 28 -1 54 -7 57 -14 5 -6 9 -3 13 10
5 19 1 21 -35 21 -21 0 -48 4 -58 10 -14 7 -19 6 -22 -8z"/>
<path d="M3727 2173 c-4 -3 -7 -19 -7 -35 0 -24 6 -32 35 -44 38 -16 68 -8 79
22 9 24 7 44 -4 44 -5 0 -10 -11 -10 -25 0 -25 -7 -29 -45 -25 -22 2 -45 18
-45 31 0 4 7 15 16 23 12 13 13 16 1 16 -7 0 -17 -3 -20 -7z"/>
<path d="M3648 1966 c-15 -34 -4 -54 36 -71 42 -18 59 -12 75 21 14 31 14 34
1 34 -5 0 -10 -6 -10 -14 0 -29 -27 -38 -59 -21 -17 8 -31 20 -31 24 0 20 13
41 21 35 5 -3 9 0 9 5 0 21 -31 11 -42 -13z"/>
<path d="M3566 1813 c-3 -4 -6 -13 -6 -21 0 -9 3 -12 6 -9 7 7 63 -28 77 -48
4 -6 10 -5 16 5 7 10 3 17 -19 28 -15 7 -37 22 -48 32 -11 10 -23 16 -26 13z"/>
<path d="M3445 1650 c-18 -19 -23 -30 -15 -30 8 0 31 -16 51 -36 l36 -36 22
30 c27 38 26 47 -4 77 -32 33 -55 31 -90 -5z m77 -7 c20 -18 22 -31 9 -52 -8
-12 -16 -9 -44 16 -26 23 -32 34 -24 42 16 16 37 14 59 -6z"/>
<path d="M3296 1511 c-4 -5 3 -30 14 -56 11 -26 17 -51 14 -57 -4 -6 -1 -8 7
-6 8 3 13 15 12 26 -3 24 31 49 42 32 7 -12 25 -4 25 11 0 5 -5 9 -10 9 -6 0
-28 11 -50 25 -44 28 -47 29 -54 16z m54 -41 c0 -5 -4 -12 -10 -15 -5 -3 -10
-4 -10 -1 0 2 -3 12 -6 20 -5 12 -2 15 10 10 9 -3 16 -10 16 -14z"/>
<path d="M2982 1265 c3 -68 12 -81 28 -40 10 25 34 33 45 15 3 -5 11 -7 18 -4
14 5 -65 94 -83 94 -7 0 -10 -24 -8 -65z m48 4 c0 -5 -7 -9 -15 -9 -9 0 -15 9
-15 21 0 18 2 19 15 9 8 -7 15 -16 15 -21z"/>
<path d="M2765 1243 c4 -10 12 -36 18 -58 5 -22 11 -41 12 -42 5 -8 74 20 70
28 -4 5 -14 5 -26 -1 -28 -15 -37 -6 -45 45 -4 30 -11 45 -21 45 -11 0 -13 -5
-8 -17z"/>
<path d="M2420 1193 c-7 -21 -19 -48 -26 -60 -13 -20 -13 -23 0 -23 7 0 16 7
20 15 3 8 15 15 26 15 11 0 23 -7 26 -15 4 -8 13 -15 21 -15 11 0 13 3 5 13
-6 7 -16 34 -22 60 -15 57 -34 60 -50 10z m29 -37 c-14 -15 -22 0 -13 26 7 22
7 22 14 3 4 -11 4 -24 -1 -29z"/>
</g>
</svg>
